<svg xmlns="http://www.w3.org/2000/svg" viewBox="33 37 33 26" role="img" aria-label="Stakee">
  <style>
    path { fill: #111; }
    @media (prefers-color-scheme: dark) {
      path { fill: #f5f5f5; }
    }
  </style>
  <path d="M58,37 C62.418278,37 66,40.581722 66,45 L66,55 C66,59.418278 62.418278,63 58,63 L44,63 C40.5912226,63 37.6803957,60.8680202 36.5282011,57.8647422 C36.9022316,57.6857634 37.2483453,57.4355375 37.5487,57.1164107 L41.9888263,52.3987764 C42.6230263,51.7249389 42.9401263,50.8624695 42.9401263,50 C42.9401263,49.1375305 42.6230263,48.2750611 41.9888263,47.6012236 L37.5487,42.8835893 C37.25424,42.5707256 36.9080861,42.3181708 36.5294736,42.1342361 C37.6803957,39.1319798 40.5912226,37 44,37 L58,37 Z M47.5502523,43.636039 C47.1597281,43.2455147 46.5265631,43.2455147 46.1360388,43.636039 C45.7455145,44.0265633 45.7455145,44.6597282 46.1360388,45.0502525 L47.2511859,46.1651944 C46.4644677,47.2401691 46,48.5658434 46,50 C46,51.4341566 46.4644677,52.7598309 47.2511859,53.8348056 L46.1360388,54.9497475 C45.7455145,55.3402718 45.7455145,55.9734367 46.1360388,56.363961 C46.5265631,56.7544853 47.1597281,56.7544853 47.5502523,56.363961 L48.6651944,55.2488141 C49.7401691,56.0355323 51.0658434,56.5 52.5,56.5 C53.9341566,56.5 55.2598309,56.0355323 56.3348056,55.2488141 L57.4497473,56.363961 C57.8402716,56.7544853 58.4734366,56.7544853 58.8639608,56.363961 C59.2544851,55.9734367 59.2544851,55.3402718 58.8639608,54.9497475 L57.7488141,53.8348056 C58.5355323,52.7598309 59,51.4341566 59,50 C59,48.5658434 58.5355323,47.2401691 57.7488141,46.1651944 L58.8639608,45.0502525 C59.2544851,44.6597282 59.2544851,44.0265633 58.8639608,43.636039 C58.4734366,43.2455147 57.8402716,43.2455147 57.4497473,43.636039 L56.3348056,44.7511859 C55.2598309,43.9644677 53.9341566,43.5 52.5,43.5 C51.0658434,43.5 49.7401691,43.9644677 48.6651944,44.7511859 Z M35,43.7823658 C35.413595,43.7823658 35.8088366,43.9531389 36.0923,44.2543187 L40.5324263,48.971953 C41.0760263,49.549528 41.0760263,50.450472 40.5324263,51.028047 L36.0923,55.7456813 C35.5245253,56.3489419 34.5752136,56.3777089 33.971953,55.8099342 C33.6707731,55.5264708 33.5,55.1312292 33.5,54.7176342 L33.5,45.2823658 C33.5,44.4539387 34.1715729,43.7823658 35,43.7823658 Z M52.5,45.25 C55.1233526,45.25 57.25,47.3766474 57.25,50 C57.25,52.6233526 55.1233526,54.75 52.5,54.75 C49.8766474,54.75 47.75,52.6233526 47.75,50 C47.75,47.3766474 49.8766474,45.25 52.5,45.25 Z M52.5,47.5 C51.1192881,47.5 50,48.6192881 50,50 C50,51.3807119 51.1192881,52.5 52.5,52.5 C53.8807119,52.5 55,51.3807119 55,50 C55,48.6192881 53.8807119,47.5 52.5,47.5 Z"/>
</svg>
