<?xml version="1.0" encoding="UTF-8"?>
<svg width="180px" height="180px" viewBox="0 0 180 180" version="1.1" xmlns="http://www.w3.org/2000/svg" xmlns:xlink="http://www.w3.org/1999/xlink">
    <title>StakingCATBot.v1</title>
    <defs>
        <linearGradient x1="50%" y1="0%" x2="50%" y2="99.2987359%" id="linearGradient-1">
            <stop stop-color="#3BB9FE" offset="0%"></stop>
            <stop stop-color="#1C8DFF" offset="100%"></stop>
        </linearGradient>
    </defs>
    <g id="StakingCATBot.v1" stroke="none" stroke-width="1" fill="none" fill-rule="evenodd">
        <rect id="Path" fill="url(#linearGradient-1)" x="0" y="0" width="180" height="180"></rect>
        <path d="M109.6875,53.4375 C122.113907,53.4375 132.1875,63.5110931 132.1875,75.9375 L132.1875,104.0625 C132.1875,116.488907 122.113907,126.5625 109.6875,126.5625 L70.3125,126.5625 C60.7271701,126.5625 52.5417838,120.568629 49.2999487,112.124494 C50.3482311,111.617507 51.3226922,110.913277 52.1682187,110.014905 L64.6560739,96.7465588 C66.4397615,94.8513907 67.3316053,92.4256954 67.3316053,90 C67.3316053,87.5743046 66.4397615,85.1486093 64.6560739,83.2534412 L52.1682187,69.985095 C51.3396068,69.1046949 50.3654502,68.3940953 49.2999349,67.8767086 C52.5404937,59.4323158 60.7264147,53.4375 70.3125,53.4375 L109.6875,53.4375 Z M112.11739,72.1013596 C111.01904,71.00301 109.238264,71.00301 108.139914,72.1013596 L105.003799,75.2374605 C101.980494,73.0249672 98.2521635,71.71875 94.21875,71.71875 C90.1853365,71.71875 86.4570064,73.0249672 83.4337007,75.2374605 L80.2975847,72.1013596 C79.1992351,71.00301 77.4184586,71.00301 76.3201091,72.1013596 C75.2217595,73.1997092 75.2217595,74.9804857 76.3201091,76.0788352 L79.4562105,79.2149507 C77.2437172,82.2382564 75.9375,85.9665865 75.9375,90 C75.9375,94.0334135 77.2437172,97.7617436 79.4562105,100.785049 L76.3201091,103.921165 C75.2217595,105.019514 75.2217595,106.800291 76.3201091,107.89864 C77.4184586,108.99699 79.1992351,108.99699 80.2975847,107.89864 L83.4337007,104.76254 C86.4570064,106.975033 90.1853365,108.28125 94.21875,108.28125 C98.2521635,108.28125 101.980494,106.975033 105.003799,104.76254 L108.139914,107.89864 C109.238264,108.99699 111.01904,108.99699 112.11739,107.89864 C113.215739,106.800291 113.215739,105.019514 112.11739,103.921165 L108.98129,100.785049 C111.193783,97.7617436 112.5,94.0334135 112.5,90 C112.5,85.9665865 111.193783,82.2382564 108.98129,79.2149507 L112.11739,76.0788352 C113.215739,74.9804857 113.215739,73.1997092 112.11739,72.1013596 Z M45,72.5129038 C46.1632359,72.5129038 47.2748529,72.9932031 48.0720937,73.8402715 L60.559949,87.1086177 C62.088824,88.7330474 62.088824,91.2669526 60.559949,92.8913823 L48.0720937,106.159729 C46.4752274,107.856399 43.8052882,107.937306 42.1086177,106.34044 C41.2615493,105.543199 40.78125,104.431582 40.78125,103.268346 L40.78125,76.7316538 C40.78125,74.4017025 42.6700487,72.5129038 45,72.5129038 Z M94.21875,76.640625 C101.596929,76.640625 107.578125,82.6218209 107.578125,90 C107.578125,97.3781791 101.596929,103.359375 94.21875,103.359375 C86.8405709,103.359375 80.859375,97.3781791 80.859375,90 C80.859375,82.6218209 86.8405709,76.640625 94.21875,76.640625 Z M94.21875,82.96875 C90.3354979,82.96875 87.1875,86.1167479 87.1875,90 C87.1875,93.8832521 90.3354979,97.03125 94.21875,97.03125 C98.1020021,97.03125 101.25,93.8832521 101.25,90 C101.25,86.1167479 98.1020021,82.96875 94.21875,82.96875 Z" id="Shape" fill="#FFFFFF"></path>
    </g>
</svg>