<?xml version="1.0" encoding="UTF-8"?>
<svg width="32" height="32" viewBox="0 0 32 32" xmlns="http://www.w3.org/2000/svg">
  <path fill="#FFFFFF" fill-rule="nonzero" d="M16,0 C24.836556,0 32,7.163444 32,16 C32,24.836556 24.836556,32 16,32 C7.163444,32 0,24.836556 0,16 C0,7.163444 7.163444,0 16,0 Z M21.1188,9.77777 L11.1035,9.77777 C9.239,9.77777 8.05682,11.7892 8.99498,13.4154 L15.1754,24.1277 C15.5904,24.8476 16.6306,24.8476 17.0456,24.1277 L23.2273,13.4154 C24.1642,11.7917 22.982,9.77777 21.1188,9.77777 Z M21.1163,11.6676 C21.5413,11.6676 21.7914,12.1185 21.5889,12.4699 L18.3423,18.2814 L17.0536,20.7742 L17.0536,11.6676 L21.1163,11.6676 Z M15.1649,11.6688 L15.1649,20.7717 L13.8776,18.2801 L10.6298,12.4715 L10.6204,12.4546 C10.435,12.1057 10.6838,11.6688 11.1022,11.6688 L15.1649,11.6688 Z"/>
</svg>
